<?xml version="1.0" encoding="utf-8"?>
<!-- Generator: Adobe Illustrator 25.2.0, SVG Export Plug-In . SVG Version: 6.00 Build 0)  -->
<svg version="1.1" id="图层_1" xmlns="http://www.w3.org/2000/svg" xmlns:xlink="http://www.w3.org/1999/xlink" x="0px"
     y="0px"
     viewBox="0 0 577.4 97.1" style="enable-background:new 0 0 577.4 97.1;" xml:space="preserve">
<style type="text/css">
	.st0{fill:#6E9FD5;}
	.st1{font-family:'ArialRoundedMTBold';}
	.st2{font-size:60px;}
</style>

	<text transform="matrix(1 0 0 1 100.6419 66.7831)" class="st0 st1 st2">乐土湾管理系统</text>

    <path class="st0" d="M85.3,10.5c-1.2,2.8-2.8,5.6-4.6,8.1c-16.6-17.2-43.9-17.6-61-1.1S2,61.4,18.6,78.5c0.5,0.6,1.2,1.2,1.8,1.7
	l1.6,1.4c18.2,15.3,45.4,13,60.7-5.2c5.9-6.9,9.4-15.7,10.1-24.8C94,40.9,90.7,27,85.3,10.5z M26.6,80.6c-1.2,1.6-3.6,1.8-5.2,0.5
	s-1.8-3.6-0.5-5.2s3.6-1.8,5.2-0.5C27.6,76.7,27.9,79,26.6,80.6z M85,67.7c-10.6,14.2-33.4,9.3-47.9,10.1c0,0-2.6,0.2-5.2,0.5
	c0,0,1-0.4,2.2-0.9c10.2-3.6,15-4.3,21.3-7.5c11.7-6,23.3-19,25.6-32.6c-4.4,13-18,24.2-30.3,28.8c-8.5,3.1-23.7,6.1-23.7,6.1
	l-0.6-0.4c-10.3-5.1-10.7-27.5,8.2-34.7c8.3-3.2,16.1-1.4,25.1-3.6c9.5-2.2,20.6-9.4,25-18.7C89.8,30,95.9,53.3,85,67.7z"/>
</svg>
